<svg width="37" height="37" viewBox="0 0 37 37" fill="none" xmlns="http://www.w3.org/2000/svg">
<path d="M30.0769 9.07692V30.6154C30.0769 32.0434 29.5096 33.413 28.4998 34.4228C27.49 35.4327 26.1204 36 24.6923 36H1C2.42808 36 3.79768 35.4327 4.80749 34.4228C5.81732 33.413 6.38462 32.0434 6.38462 30.6154V6.38462C6.38462 4.95653 6.95191 3.58693 7.96174 2.57713C8.97155 1.56731 10.3412 1 11.7692 1H32.85" stroke="black" stroke-width="2" stroke-linecap="round" stroke-linejoin="round"/>
<path d="M32.8498 1C35.6056 1 35.9997 3.8 35.9997 5.55V7.73078C35.9997 8.08781 35.8579 8.43022 35.6056 8.68265C35.353 8.93511 35.0106 9.07694 34.6536 9.07694H30.0767V5.71155C30.0767 2.05 31.7998 1 32.8498 1Z" stroke="black" stroke-width="2" stroke-linecap="round" stroke-linejoin="round"/>
<path d="M17.1001 10.1001H23.4001" stroke="black" stroke-width="2" stroke-linecap="round" stroke-linejoin="round"/>
<path d="M12.8999 18.5H23.3999" stroke="black" stroke-width="2" stroke-linecap="round" stroke-linejoin="round"/>
<path d="M12.8999 26.8999H23.3999" stroke="black" stroke-width="2" stroke-linecap="round" stroke-linejoin="round"/>
</svg>
