<svg width="37" height="37" viewBox="0 0 37 37" fill="none" xmlns="http://www.w3.org/2000/svg">
<path d="M3.69231 5.03857C2.97825 5.03857 2.29347 5.32224 1.78856 5.82712C1.28365 6.33204 1 7.01683 1 7.73088V33.3078C1 34.0218 1.28365 34.7067 1.78856 35.2115C2.29347 35.7163 2.97825 36.0001 3.69231 36.0001H33.3077C34.0217 36.0001 34.7066 35.7163 35.2114 35.2115C35.7162 34.7067 36 34.0218 36 33.3078V7.73088C36 7.01683 35.7162 6.33204 35.2114 5.82712C34.7066 5.32224 34.0217 5.03857 33.3077 5.03857H27.9231" stroke="black" stroke-width="2" stroke-linecap="round" stroke-linejoin="round"/>
<path d="M9.07715 1V9.07692" stroke="black" stroke-width="2" stroke-linecap="round" stroke-linejoin="round"/>
<path d="M27.9229 1V9.07692" stroke="black" stroke-width="2" stroke-linecap="round" stroke-linejoin="round"/>
<path d="M9.07715 5.03857H22.5387" stroke="black" stroke-width="2" stroke-linecap="round" stroke-linejoin="round"/>
<path d="M25.2306 21.1924H11.769" stroke="black" stroke-width="2" stroke-linecap="round" stroke-linejoin="round"/>
<path d="M18.5 14.4614V27.923" stroke="black" stroke-width="2" stroke-linecap="round" stroke-linejoin="round"/>
</svg>
