<svg width="37" height="37" viewBox="0 0 37 37" fill="none" xmlns="http://www.w3.org/2000/svg">
<path d="M3.69231 5.03857C2.97826 5.03857 2.29347 5.32224 1.78856 5.82712C1.28365 6.33204 1 7.01683 1 7.73088V33.3078C1 34.0218 1.28365 34.7068 1.78856 35.2116C2.29347 35.7164 2.97826 36.0001 3.69231 36.0001H33.3077C34.0217 36.0001 34.7066 35.7164 35.2115 35.2116C35.7163 34.7068 36 34.0218 36 33.3078V7.73088C36 7.01683 35.7163 6.33204 35.2115 5.82712C34.7066 5.32224 34.0217 5.03857 33.3077 5.03857H27.9231" stroke="black" stroke-width="2" stroke-linecap="round" stroke-linejoin="round"/>
<path d="M1 14.4614H36" stroke="black" stroke-width="2" stroke-linecap="round" stroke-linejoin="round"/>
<path d="M9.07715 1V9.07693" stroke="black" stroke-width="2" stroke-linecap="round" stroke-linejoin="round"/>
<path d="M27.9229 1V9.07693" stroke="black" stroke-width="2" stroke-linecap="round" stroke-linejoin="round"/>
<path d="M9.07715 5.03857H22.5387" stroke="black" stroke-width="2" stroke-linecap="round" stroke-linejoin="round"/>
<path fill-rule="evenodd" clip-rule="evenodd" d="M16.3999 20.2998C16.3999 20.8521 15.9522 21.2998 15.3999 21.2998H13.8999C13.3476 21.2998 12.8999 20.8521 12.8999 20.2998V18.7998C12.8999 18.2475 13.3476 17.7998 13.8999 17.7998H15.3999C15.9522 17.7998 16.3999 18.2475 16.3999 18.7998V20.2998ZM23.3999 20.2998C23.3999 20.8521 22.9522 21.2998 22.3999 21.2998H20.8999C20.3476 21.2998 19.8999 20.8521 19.8999 20.2998V18.7998C19.8999 18.2475 20.3476 17.7998 20.8999 17.7998H22.3999C22.9522 17.7998 23.3999 18.2475 23.3999 18.7998V20.2998ZM27.8999 21.2998C27.3476 21.2998 26.8999 20.8521 26.8999 20.2998V18.7998C26.8999 18.2475 27.3476 17.7998 27.8999 17.7998H29.3999C29.9522 17.7998 30.3999 18.2475 30.3999 18.7998V20.2998C30.3999 20.8521 29.9522 21.2998 29.3999 21.2998H27.8999Z" fill="black"/>
<path fill-rule="evenodd" clip-rule="evenodd" d="M5.8999 24.3999C5.8999 23.8476 6.34762 23.3999 6.8999 23.3999H8.3999C8.95219 23.3999 9.3999 23.8476 9.3999 24.3999V25.8999C9.3999 26.4522 8.95219 26.8999 8.3999 26.8999H6.8999C6.34762 26.8999 5.8999 26.4522 5.8999 25.8999V24.3999ZM16.3999 25.8999C16.3999 26.4522 15.9522 26.8999 15.3999 26.8999H13.8999C13.3476 26.8999 12.8999 26.4522 12.8999 25.8999V24.3999C12.8999 23.8476 13.3476 23.3999 13.8999 23.3999H15.3999C15.9522 23.3999 16.3999 23.8476 16.3999 24.3999V25.8999ZM23.3999 25.8999C23.3999 26.4522 22.9522 26.8999 22.3999 26.8999H20.8999C20.3476 26.8999 19.8999 26.4522 19.8999 25.8999V24.3999C19.8999 23.8476 20.3476 23.3999 20.8999 23.3999H22.3999C22.9522 23.3999 23.3999 23.8476 23.3999 24.3999V25.8999ZM27.8999 26.8999C27.3476 26.8999 26.8999 26.4522 26.8999 25.8999V24.3999C26.8999 23.8476 27.3476 23.3999 27.8999 23.3999H29.3999C29.9522 23.3999 30.3999 23.8476 30.3999 24.3999V25.8999C30.3999 26.4522 29.9522 26.8999 29.3999 26.8999H27.8999Z" fill="black"/>
<path fill-rule="evenodd" clip-rule="evenodd" d="M5.8999 30C5.8999 29.4477 6.34762 29 6.8999 29H8.3999C8.95219 29 9.3999 29.4477 9.3999 30V31.5C9.3999 32.0523 8.95219 32.5 8.3999 32.5H6.8999C6.34762 32.5 5.8999 32.0523 5.8999 31.5V30ZM16.3999 31.5C16.3999 32.0523 15.9522 32.5 15.3999 32.5H13.8999C13.3476 32.5 12.8999 32.0523 12.8999 31.5V30C12.8999 29.4477 13.3476 29 13.8999 29H15.3999C15.9522 29 16.3999 29.4477 16.3999 30V31.5ZM23.3999 31.5C23.3999 32.0523 22.9522 32.5 22.3999 32.5H20.8999C20.3476 32.5 19.8999 32.0523 19.8999 31.5V30C19.8999 29.4477 20.3476 29 20.8999 29H22.3999C22.9522 29 23.3999 29.4477 23.3999 30V31.5Z" fill="black"/>
</svg>
