<svg width="32" height="37" viewBox="0 0 32 37" fill="none" xmlns="http://www.w3.org/2000/svg">
<path d="M7.99365 9.4824C7.99365 11.1929 9.38027 12.5796 11.0908 12.5796C11.5232 12.5796 11.9349 12.4909 12.3088 12.3309C13.4138 11.8577 14.1879 10.7605 14.1879 9.4824C14.1879 7.7719 12.8013 6.38525 11.0908 6.38525C9.38027 6.38525 7.99365 7.7719 7.99365 9.4824Z" stroke="black" stroke-width="2" stroke-linecap="round" stroke-linejoin="round"/>
<path d="M6.38477 15.6463C6.87689 14.7103 7.56857 13.9367 8.39328 13.3998C9.21799 12.863 10.148 12.5811 11.0939 12.5811C12.0398 12.5811 12.9698 12.863 13.7945 13.3998C14.6192 13.9367 15.3109 14.7103 15.8031 15.6463" stroke="black" stroke-width="2" stroke-linecap="round" stroke-linejoin="round"/>
<path d="M30.6154 33.3077C30.6154 34.0217 30.3316 34.7066 29.8268 35.2114C29.322 35.7162 28.6371 36 27.9231 36H3.69231C2.97825 36 2.29347 35.7162 1.78855 35.2114C1.28366 34.7066 1 34.0217 1 33.3077V3.69231C1 2.97825 1.28366 2.29347 1.78855 1.78856C2.29347 1.28365 2.97825 1 3.69231 1H21.1923L30.6154 10.4231V33.3077Z" stroke="black" stroke-width="2" stroke-linecap="round" stroke-linejoin="round"/>
<path d="M6.38477 22.5386H25.2309" stroke="black" stroke-width="2" stroke-linecap="round"/>
<path d="M6.38477 29.269H17.154" stroke="black" stroke-width="2" stroke-linecap="round"/>
</svg>
