<?xml version="1.0" encoding="UTF-8"?>
<!-- Generator: visioncortex VTracer 0.6.3 -->
<svg version="1.1" xmlns="http://www.w3.org/2000/svg" width="1280" height="1280">
<path d="M0 0 C11.22 0 22.44 0 34 0 C34.33 2.64 34.66 5.28 35 8 C36.28 10.37 36.28 10.37 38 12.19 C40.4 15.09 41.76 17.12 42 21 C42.99 21.33 43.98 21.66 45 22 C49.69 29.7 50.3 37.51 50.23 46.27 C50.23 47.27 50.23 48.26 50.23 49.29 C50.23 52.56 50.21 55.83 50.2 59.09 C50.19 61.37 50.19 63.64 50.19 65.92 C50.18 71.89 50.16 77.86 50.14 83.83 C50.12 89.93 50.11 96.03 50.1 102.13 C50.08 114.09 50.04 126.04 50 138 C54.3 139.63 57.86 140.25 62.44 140.27 C64.35 140.29 64.35 140.29 66.31 140.3 C67.71 140.3 69.11 140.3 70.52 140.3 C72 140.31 73.49 140.32 74.98 140.33 C78.18 140.35 81.38 140.36 84.57 140.37 C89.65 140.38 94.73 140.4 99.8 140.43 C107.85 140.47 115.9 140.5 123.95 140.53 C138.31 140.58 152.67 140.65 167.03 140.72 C172.05 140.74 177.08 140.76 182.1 140.78 C237.05 140.96 237.05 140.96 247 148 C250 151.29 250 151.29 250 154 C251.05 154.23 252.1 154.46 253.18 154.7 C264.92 157.38 273.07 159.8 280.32 169.93 C282.82 173.01 285.47 174.2 289 176 C293.62 179.26 295.74 182.08 298.01 187.08 C299.97 190.88 303.33 193.41 306.5 196.19 C313.74 204.33 315.7 214.66 318 225 C321.96 225.5 321.96 225.5 326 226 C326 545.77 326 865.54 326 1195 C323.36 1195.33 320.72 1195.66 318 1196 C317.84 1196.6 317.69 1197.21 317.53 1197.83 C316.81 1200.6 316.06 1203.36 315.31 1206.12 C315.07 1207.08 314.82 1208.03 314.57 1209.01 C312.64 1216.06 310.46 1220.47 304.44 1224.88 C301.61 1227.34 300.64 1229.56 299.09 1232.91 C297.26 1236.41 294.69 1239.15 292 1242 C291.24 1242.83 290.47 1243.65 289.69 1244.5 C285.11 1248.76 280.41 1252.84 274.75 1255.56 C271.77 1257.12 270.48 1258.92 268.45 1261.53 C263.34 1266.72 254.4 1268.14 247.56 1269.75 C246.22 1270.08 246.22 1270.08 244.85 1270.42 C238.33 1272 238.33 1272 236 1272 C236 1274.64 236 1277.28 236 1280 C-125.35 1280 -486.7 1280 -859 1280 C-859 1277.36 -859 1274.72 -859 1272 C-859.55 1271.9 -860.11 1271.8 -860.68 1271.7 C-888.06 1266.67 -888.06 1266.67 -894 1259 C-894.12 1258.32 -894.23 1257.64 -894.36 1256.94 C-894.57 1256.3 -894.78 1255.66 -895 1255 C-896.92 1254 -896.92 1254 -899.25 1253.5 C-903.32 1252.27 -906.05 1251.21 -909 1248 C-909.64 1246.51 -910.24 1245.01 -910.81 1243.5 C-912.27 1239.86 -913.34 1238.41 -916.94 1236.81 C-917.63 1236.52 -918.32 1236.23 -919.04 1235.94 C-922.39 1234.34 -923.98 1232.05 -926 1229 C-926.45 1227.55 -926.86 1226.09 -927.25 1224.62 C-928.44 1220.51 -930.11 1218.78 -933.44 1216.12 C-943.31 1207.91 -943.81 1193 -946 1181 C-948.64 1180.67 -951.28 1180.34 -954 1180 C-954 870.13 -954 560.26 -954 241 C-951.36 241 -948.72 241 -946 241 C-945.84 240.02 -945.84 240.02 -945.68 239.02 C-945.19 236.01 -944.69 233 -944.19 230 C-944.02 228.97 -943.86 227.94 -943.69 226.88 C-941.09 211.48 -941.09 211.48 -936.06 207.12 C-933 205 -933 205 -930.9 204.21 C-928.76 203.12 -928.76 203.12 -928.13 200.53 C-927.94 199.53 -927.76 198.53 -927.56 197.5 C-925.13 186.85 -922.11 181.21 -912.9 175.14 C-909.73 172.8 -907.42 170.25 -904.88 167.25 C-897.21 158.52 -887.78 156.79 -876.7 154.53 C-876.14 154.36 -875.58 154.18 -875 154 C-874.32 152.68 -873.65 151.34 -873 150 C-866.55 143.35 -856.43 142.48 -847.62 141.75 C-846.21 141.63 -846.21 141.63 -844.77 141.51 C-838.18 141.01 -831.66 140.91 -825.06 141.19 C-824.25 141.22 -823.44 141.25 -822.61 141.28 C-816.17 141.67 -811.13 142.92 -806.38 147.56 C-803.8 150.93 -802.14 154.72 -800.33 158.53 C-798.67 161.61 -796.64 164.01 -794.23 166.53 C-793 168 -793 168 -792 171 C-792.89 173.16 -792.89 173.16 -794.25 175.5 C-794.69 176.27 -795.13 177.05 -795.58 177.84 C-797 180 -797 180 -798.55 181.44 C-800.52 183.56 -801.03 185.68 -801.88 188.44 C-803.8 193.98 -805.77 196.4 -811.06 199.02 C-815.19 200.4 -819.3 200.69 -823.62 201.06 C-825.33 201.22 -827.03 201.37 -828.73 201.54 C-829.85 201.63 -829.85 201.63 -830.99 201.73 C-834.36 202.18 -835.72 202.64 -837.82 205.37 C-840.31 208.38 -842.33 209.47 -845.88 211.06 C-847.02 211.57 -848.16 212.09 -849.33 212.61 C-853.05 214.02 -856.68 214.89 -860.56 215.75 C-865.35 216.9 -865.35 216.9 -868.59 220.33 C-869.59 222.97 -869.59 222.97 -870.29 225.66 C-871.31 229.01 -873.03 230.26 -876 232 C-876.84 232.24 -877.68 232.47 -878.55 232.71 C-881.26 233.8 -881.26 233.8 -882.11 236.72 C-882.32 237.82 -882.53 238.93 -882.75 240.06 C-882.97 241.15 -883.19 242.23 -883.42 243.35 C-884.56 250.56 -885.15 257.62 -885.15 264.92 C-885.15 265.77 -885.15 266.62 -885.16 267.5 C-885.17 270.32 -885.17 273.15 -885.18 275.98 C-885.18 278.01 -885.19 280.05 -885.2 282.08 C-885.22 288.74 -885.23 295.4 -885.24 302.05 C-885.24 304.35 -885.25 306.64 -885.25 308.94 C-885.27 319.71 -885.28 330.48 -885.29 341.25 C-885.3 353.68 -885.33 366.11 -885.37 378.55 C-885.4 388.16 -885.41 397.78 -885.42 407.39 C-885.42 413.14 -885.43 418.88 -885.45 424.62 C-885.48 430.02 -885.48 435.41 -885.47 440.8 C-885.47 442.78 -885.48 444.76 -885.49 446.75 C-885.51 449.45 -885.5 452.14 -885.49 454.84 C-885.5 455.63 -885.51 456.42 -885.52 457.24 C-885.52 461.33 -885.52 461.33 -883.45 464.7 C-880.07 466.49 -876.97 466.41 -873.23 466.38 C-872.44 466.38 -871.65 466.39 -870.83 466.39 C-868.15 466.4 -865.48 466.39 -862.8 466.38 C-860.86 466.38 -858.92 466.39 -856.98 466.39 C-851.62 466.41 -846.26 466.4 -840.89 466.39 C-835.07 466.38 -829.25 466.4 -823.43 466.4 C-813.21 466.42 -803 466.42 -792.78 466.41 C-781.82 466.4 -770.86 466.4 -759.89 466.41 C-758.85 466.41 -758.85 466.41 -757.8 466.41 C-754.98 466.42 -752.16 466.42 -749.34 466.42 C-720.72 466.44 -692.1 466.44 -663.47 466.44 C-659.52 466.44 -655.56 466.44 -651.6 466.44 C-650.42 466.44 -650.42 466.44 -649.22 466.44 C-631.82 466.43 -614.41 466.44 -597.01 466.44 C-594.62 466.44 -592.24 466.44 -589.86 466.44 C-583.48 466.44 -577.1 466.44 -570.72 466.45 C-526.15 466.46 -481.59 466.46 -437.03 466.45 C-436.19 466.45 -435.34 466.45 -434.48 466.45 C-425.11 466.45 -415.74 466.45 -406.37 466.45 C-405.1 466.45 -405.1 466.45 -403.8 466.45 C-398.67 466.45 -398.67 466.45 -393.54 466.45 C-339.41 466.44 -285.28 466.44 -231.16 466.47 C-217.52 466.47 -203.88 466.48 -190.24 466.48 C-188.98 466.48 -188.98 466.48 -187.7 466.49 C-161.83 466.5 -135.95 466.5 -110.08 466.5 C-108.87 466.5 -108.87 466.5 -107.62 466.5 C-89.8 466.5 -71.98 466.5 -54.15 466.5 C-47.78 466.5 -41.4 466.5 -35.02 466.5 C-33.43 466.5 -31.85 466.5 -30.26 466.5 C-4.96 466.49 20.34 466.5 45.65 466.52 C71.83 466.53 98.01 466.53 124.2 466.51 C127.01 466.51 129.82 466.51 132.63 466.51 C133.32 466.51 134.01 466.51 134.72 466.51 C145.65 466.5 156.59 466.51 167.52 466.52 C178.27 466.53 189.01 466.53 199.75 466.51 C205.5 466.5 211.25 466.5 217 466.52 C222.23 466.53 227.45 466.53 232.68 466.51 C234.56 466.5 236.45 466.51 238.33 466.52 C240.88 466.53 243.43 466.52 245.98 466.5 C246.71 466.51 247.45 466.52 248.2 466.53 C253.23 466.46 256.2 465.28 260 462 C260.61 459 260.81 456.8 260.75 453.8 C260.76 452.97 260.76 452.13 260.77 451.27 C260.79 448.47 260.77 445.68 260.74 442.88 C260.75 440.87 260.76 438.87 260.77 436.86 C260.79 431.4 260.77 425.94 260.74 420.49 C260.72 414.76 260.73 409.04 260.73 403.31 C260.73 393.68 260.71 384.05 260.67 374.41 C260.63 363.32 260.62 352.23 260.64 341.14 C260.65 330.44 260.64 319.74 260.61 309.04 C260.6 304.5 260.6 299.97 260.61 295.43 C260.61 290.06 260.59 284.7 260.56 279.33 C260.55 277.37 260.55 275.42 260.56 273.47 C260.58 263.28 260.02 253.51 258.15 243.48 C257.91 242.16 257.91 242.16 257.66 240.82 C256.45 234.92 255.26 230.54 250.06 227 C249.05 226.34 248.04 225.68 247 225 C245.62 223.37 244.28 221.71 243 220 C239.7 215.96 236.06 214.77 231.19 213.44 C224.97 211.67 219.14 209.61 213.37 206.65 C202.26 200.97 190.16 201.85 177.95 201.89 C176.6 201.89 175.24 201.89 173.89 201.89 C170.27 201.89 166.64 201.89 163.02 201.9 C159.21 201.9 155.41 201.91 151.6 201.91 C144.42 201.91 137.23 201.92 130.05 201.93 C121.86 201.94 113.67 201.94 105.48 201.95 C88.65 201.96 71.83 201.98 55 202 C51.16 214.42 50.42 225.96 50.46 238.9 C50.45 240.87 50.44 242.84 50.43 244.81 C50.39 249.95 50.38 255.09 50.38 260.24 C50.37 268.48 50.33 276.73 50.29 284.98 C50.27 287.84 50.27 290.7 50.28 293.56 C50.24 312.24 50.24 312.24 48 318 C45.65 320.16 45.65 320.16 43 322 C40.88 324.97 39.22 328.22 37.48 331.42 C34.48 336.73 31.34 340.83 25.36 342.93 C22.57 343.34 19.8 343.72 17 344 C15.69 344.14 15.69 344.14 14.35 344.29 C7.96 344.66 3.89 343.11 -1 339 C-2.89 336.91 -4 334.99 -5.31 332.5 C-6.9 329.79 -6.9 329.79 -9.94 328.12 C-13.59 325.59 -15.49 323.11 -17 319 C-17.57 314.99 -17.54 311.02 -17.51 306.97 C-17.52 305.77 -17.53 304.56 -17.54 303.31 C-17.55 299.97 -17.55 296.62 -17.54 293.28 C-17.53 289.67 -17.55 286.06 -17.56 282.45 C-17.58 275.38 -17.58 268.31 -17.57 261.24 C-17.57 255.49 -17.57 249.75 -17.57 244 C-17.58 243.18 -17.58 242.36 -17.58 241.52 C-17.58 239.86 -17.58 238.2 -17.58 236.53 C-17.6 220.95 -17.59 205.37 -17.57 189.78 C-17.56 175.53 -17.57 161.28 -17.6 147.02 C-17.63 132.38 -17.64 117.74 -17.63 103.1 C-17.63 101.45 -17.63 99.79 -17.63 98.13 C-17.63 97.32 -17.63 96.5 -17.63 95.66 C-17.63 89.93 -17.64 84.19 -17.65 78.45 C-17.67 71.45 -17.67 64.46 -17.65 57.47 C-17.63 53.9 -17.63 50.33 -17.65 46.76 C-17.67 42.89 -17.65 39.02 -17.63 35.15 C-17.65 33.47 -17.65 33.47 -17.66 31.75 C-17.58 24.97 -16.59 20.17 -12 15 C-9.2 13.01 -6.39 11.57 -3.33 10.03 C-0.05 7.63 -0.05 7.63 0 0 Z M-883.95 537.25 C-885.72 540.15 -886.62 542.42 -886.62 545.86 C-886.64 546.77 -886.65 547.68 -886.66 548.61 C-886.65 549.59 -886.63 550.57 -886.62 551.58 C-886.63 552.64 -886.63 553.7 -886.64 554.79 C-886.66 558.35 -886.63 561.91 -886.61 565.47 C-886.62 568.05 -886.62 570.62 -886.63 573.2 C-886.65 578.8 -886.64 584.4 -886.62 590.01 C-886.6 598.34 -886.6 606.67 -886.61 615 C-886.62 629.02 -886.61 643.04 -886.59 657.06 C-886.57 670.95 -886.55 684.84 -886.55 698.73 C-886.55 699.6 -886.55 700.46 -886.55 701.35 C-886.55 704.86 -886.55 708.36 -886.55 711.87 C-886.55 744.78 -886.52 777.7 -886.48 810.61 C-886.45 839.84 -886.43 869.07 -886.43 898.3 C-886.43 899.23 -886.43 900.16 -886.43 901.11 C-886.42 903.92 -886.42 906.73 -886.42 909.55 C-886.42 913.28 -886.42 917.01 -886.42 920.74 C-886.42 921.66 -886.42 922.59 -886.42 923.53 C-886.42 952.34 -886.4 981.14 -886.38 1009.94 C-886.38 1019.5 -886.37 1029.05 -886.37 1038.61 C-886.37 1039.46 -886.37 1040.32 -886.37 1041.21 C-886.37 1042.07 -886.37 1042.92 -886.37 1043.81 C-886.36 1060.34 -886.35 1076.87 -886.32 1093.4 C-886.31 1101.69 -886.31 1109.97 -886.31 1118.25 C-886.31 1124.44 -886.3 1130.63 -886.28 1136.82 C-886.28 1139.32 -886.28 1141.82 -886.28 1144.32 C-887.49 1167.69 -887.49 1167.69 -880 1189 C-877.32 1191.16 -874.54 1193.06 -871.67 1194.95 C-868.94 1197.05 -867.59 1198.8 -865.88 1201.75 C-862.75 1206.85 -859.64 1208.34 -854 1210 C-842.45 1212.76 -831.46 1213.43 -819.63 1213.38 C-817.82 1213.38 -816.01 1213.39 -814.2 1213.39 C-809.25 1213.4 -804.3 1213.4 -799.35 1213.39 C-793.96 1213.38 -788.56 1213.39 -783.17 1213.4 C-773.72 1213.41 -764.28 1213.41 -754.83 1213.4 C-740.78 1213.39 -726.74 1213.39 -712.69 1213.4 C-689.06 1213.42 -665.42 1213.42 -641.79 1213.41 C-640.71 1213.41 -640.71 1213.41 -639.61 1213.41 C-638.89 1213.41 -638.17 1213.41 -637.42 1213.41 C-615.47 1213.4 -593.51 1213.4 -571.56 1213.4 C-570.09 1213.4 -568.62 1213.4 -567.14 1213.4 C-561.23 1213.4 -555.32 1213.4 -549.41 1213.41 C-532.88 1213.41 -516.36 1213.41 -499.83 1213.41 C-499.08 1213.41 -498.33 1213.41 -497.55 1213.41 C-473.58 1213.41 -449.61 1213.41 -425.63 1213.4 C-424.86 1213.4 -424.08 1213.4 -423.28 1213.4 C-410.65 1213.4 -398.03 1213.39 -385.41 1213.39 C-335.34 1213.38 -285.28 1213.38 -235.22 1213.39 C-222.6 1213.39 -209.98 1213.4 -197.37 1213.4 C-196.59 1213.4 -195.81 1213.4 -195.01 1213.4 C-171.07 1213.41 -147.12 1213.41 -123.17 1213.41 C-122.42 1213.41 -121.67 1213.41 -120.89 1213.41 C-104.38 1213.41 -87.88 1213.41 -71.37 1213.4 C-65.46 1213.4 -59.55 1213.4 -53.65 1213.4 C-52.18 1213.4 -50.71 1213.4 -49.24 1213.4 C-27.29 1213.4 -5.34 1213.4 16.61 1213.41 C17.33 1213.41 18.05 1213.41 18.79 1213.41 C19.5 1213.41 20.22 1213.41 20.96 1213.41 C45.19 1213.42 69.41 1213.41 93.63 1213.4 C107.6 1213.39 121.56 1213.39 135.52 1213.4 C144.85 1213.41 154.18 1213.4 163.5 1213.39 C168.82 1213.38 174.13 1213.38 179.44 1213.39 C184.28 1213.4 189.12 1213.4 193.96 1213.38 C195.7 1213.38 197.43 1213.38 199.17 1213.39 C212.5 1213.44 225.23 1212.23 238 1208 C239.67 1205.8 239.67 1205.8 240.56 1203.12 C242.6 1198.48 244.34 1196.33 249 1194 C249.91 1193.71 250.82 1193.42 251.75 1193.12 C254.23 1192.2 254.23 1192.2 254.98 1189.6 C260.1 1171.54 261.73 1154.33 261.63 1135.61 C261.63 1133.04 261.64 1130.46 261.65 1127.89 C261.67 1122.34 261.66 1116.78 261.65 1111.23 C261.63 1102.98 261.64 1094.73 261.65 1086.47 C261.67 1071.73 261.67 1056.98 261.65 1042.24 C261.63 1029.35 261.63 1016.46 261.63 1003.56 C261.63 1002.71 261.63 1001.85 261.63 1000.97 C261.63 997.49 261.63 994.01 261.63 990.53 C261.64 957.95 261.63 925.37 261.59 892.79 C261.57 863.84 261.56 834.9 261.58 805.95 C261.58 798.53 261.58 791.1 261.59 783.68 C261.59 782.31 261.59 782.31 261.59 780.91 C261.6 756.71 261.59 732.5 261.58 708.29 C261.58 705.69 261.58 703.09 261.58 700.49 C261.57 698.76 261.57 697.03 261.57 695.31 C261.57 682.41 261.57 669.51 261.58 656.62 C261.58 641.97 261.58 627.32 261.55 612.67 C261.54 604.47 261.53 596.27 261.55 588.07 C261.56 581.96 261.54 575.85 261.52 569.74 C261.52 567.26 261.52 564.78 261.53 562.3 C261.54 558.94 261.53 555.59 261.51 552.23 C261.52 551.26 261.52 550.28 261.53 549.28 C261.49 545.11 261.41 542.67 259.22 539.05 C258.49 538.37 257.75 537.7 257 537 C256.45 536.47 255.91 535.94 255.35 535.4 C252.05 533.43 248.97 533.59 245.24 533.62 C244.45 533.61 243.65 533.61 242.84 533.61 C240.16 533.59 237.49 533.6 234.81 533.61 C232.87 533.61 230.94 533.6 229 533.59 C223.64 533.58 218.28 533.58 212.92 533.59 C207.1 533.59 201.29 533.58 195.47 533.57 C185.26 533.55 175.05 533.55 164.85 533.55 C153.89 533.55 142.94 533.55 131.98 533.53 C131.29 533.53 130.6 533.53 129.88 533.53 C127.07 533.53 124.25 533.52 121.44 533.52 C92.05 533.49 62.66 533.47 33.27 533.47 C30.1 533.47 26.94 533.47 23.77 533.47 C22.99 533.47 22.2 533.47 21.39 533.46 C4 533.46 -13.39 533.45 -30.78 533.44 C-37.94 533.44 -45.1 533.44 -52.26 533.43 C-53.05 533.43 -53.84 533.43 -54.65 533.43 C-99.98 533.41 -145.31 533.39 -190.64 533.39 C-192.33 533.39 -194.03 533.39 -195.73 533.39 C-203.39 533.39 -211.05 533.39 -218.71 533.39 C-222.13 533.39 -225.54 533.39 -228.96 533.39 C-230.67 533.39 -232.38 533.39 -234.09 533.39 C-288.17 533.39 -342.26 533.36 -396.35 533.31 C-436.67 533.27 -477 533.23 -517.33 533.23 C-518.14 533.22 -518.95 533.22 -519.79 533.22 C-537.6 533.22 -555.4 533.22 -573.21 533.22 C-579.58 533.22 -585.96 533.22 -592.33 533.22 C-593.91 533.22 -595.5 533.22 -597.08 533.22 C-622.37 533.22 -647.65 533.2 -672.93 533.17 C-698.39 533.13 -723.85 533.12 -749.31 533.15 C-752.82 533.15 -756.33 533.15 -759.85 533.15 C-760.54 533.15 -761.23 533.15 -761.94 533.15 C-772.86 533.16 -783.79 533.15 -794.72 533.12 C-805.45 533.1 -816.19 533.1 -826.92 533.12 C-832.67 533.14 -838.41 533.14 -844.16 533.11 C-849.38 533.08 -854.6 533.09 -859.82 533.12 C-861.71 533.13 -863.59 533.12 -865.47 533.1 C-868.02 533.08 -870.57 533.1 -873.11 533.13 C-874.21 533.1 -874.21 533.1 -875.34 533.08 C-879.5 533.18 -881.49 534.03 -883.95 537.25 Z " fill="#000000" transform="translate(954,0)"/>
<path d="M0 0 C9.57 0 19.14 0 29 0 C29.5 3.96 29.5 3.96 30 8 C31.6 9.57 31.6 9.57 33.75 10.12 C38.13 11.93 40.35 13.95 43 18 C45.06 24.48 45.3 30.5 45.3 37.27 C45.31 38.37 45.32 39.47 45.33 40.6 C45.35 44.22 45.37 47.84 45.38 51.46 C45.4 53.98 45.41 56.5 45.43 59.02 C45.47 64.97 45.5 70.91 45.53 76.85 C45.59 88.14 45.65 99.43 45.73 110.72 C45.75 114.43 45.77 118.15 45.79 121.86 C45.8 124.12 45.81 126.38 45.83 128.64 C45.83 129.68 45.83 130.72 45.83 131.79 C45.84 132.73 45.85 133.67 45.86 134.64 C45.86 135.47 45.86 136.29 45.87 137.13 C45.8 139.01 45.8 139.01 47 140 C49.29 140.1 51.58 140.13 53.87 140.13 C54.96 140.14 54.96 140.14 56.08 140.14 C58.56 140.15 61.04 140.15 63.52 140.14 C65.3 140.15 67.08 140.15 68.86 140.16 C73.79 140.17 78.71 140.17 83.63 140.17 C88.93 140.18 94.23 140.18 99.53 140.19 C108.73 140.21 117.92 140.22 127.11 140.23 C140.42 140.24 153.73 140.26 167.03 140.29 C188.64 140.33 210.24 140.36 231.84 140.39 C233.14 140.39 234.43 140.4 235.76 140.4 C254.11 140.43 272.46 140.45 290.81 140.47 C292.75 140.47 292.75 140.47 294.72 140.48 C296.66 140.48 296.66 140.48 298.63 140.48 C320.14 140.51 341.64 140.54 363.15 140.58 C376.42 140.61 389.69 140.63 402.96 140.64 C412.06 140.64 421.16 140.66 430.26 140.68 C435.5 140.69 440.75 140.7 446 140.7 C450.81 140.7 455.62 140.71 460.43 140.72 C462.17 140.73 463.9 140.73 465.64 140.72 C492.17 140.68 492.17 140.68 499 147 C500.07 148.74 501.01 150.52 501.94 152.35 C503.05 154.32 503.05 154.32 506 155.94 C510.67 159.15 512.39 163.36 513.65 168.79 C514.06 172.51 513.78 175.79 513.31 179.5 C513.16 180.77 513.02 182.04 512.86 183.34 C511.66 188.45 509.48 191.75 505.5 195.12 C494.35 201.1 484.09 201.58 471.78 201.52 C469.94 201.52 468.11 201.53 466.28 201.54 C461.26 201.56 456.25 201.56 451.24 201.55 C445.82 201.54 440.41 201.56 434.99 201.58 C425.62 201.6 416.25 201.61 406.87 201.61 C393.32 201.61 379.77 201.63 366.22 201.65 C344.23 201.69 322.24 201.72 300.25 201.73 C278.9 201.74 257.54 201.76 236.18 201.79 C234.87 201.79 233.55 201.8 232.19 201.8 C225.58 201.81 218.98 201.82 212.37 201.83 C157.58 201.91 102.79 201.96 48 202 C47.67 203.56 47.34 205.12 47.02 206.69 C46.83 207.56 46.65 208.43 46.46 209.32 C45.71 213.65 45.71 217.93 45.71 222.31 C45.7 223.77 45.7 223.77 45.69 225.27 C45.68 227.37 45.67 229.48 45.66 231.58 C45.66 234.92 45.64 238.26 45.61 241.6 C45.56 248.69 45.53 255.78 45.5 262.88 C45.46 271.09 45.42 279.31 45.36 287.53 C45.34 290.8 45.34 294.07 45.33 297.35 C45.17 328.44 45.17 328.44 35.69 338.44 C24.84 344.75 12.65 345.35 0.51 342.8 C-4.66 341.15 -7.68 338.45 -10.24 333.69 C-16.65 317.98 -15.29 300 -15.27 283.41 C-15.28 280.74 -15.28 278.07 -15.29 275.39 C-15.3 268.91 -15.3 262.43 -15.3 255.96 C-15.3 250.68 -15.3 245.41 -15.31 240.14 C-15.31 239.39 -15.31 238.63 -15.31 237.86 C-15.31 236.33 -15.31 234.79 -15.31 233.26 C-15.32 218.94 -15.32 204.62 -15.31 190.29 C-15.31 177.22 -15.32 164.15 -15.34 151.08 C-15.36 137.62 -15.37 124.16 -15.36 110.7 C-15.36 103.16 -15.36 95.62 -15.38 88.08 C-15.39 81.66 -15.39 75.25 -15.38 68.83 C-15.37 65.56 -15.37 62.29 -15.38 59.03 C-15.49 24.26 -15.49 24.26 -9 13 C-6.31 10.51 -4.47 9.16 -1 8 C-0.67 5.36 -0.34 2.72 0 0 Z " fill="#000000" transform="translate(300,0)"/>
<path d="M0 0 C0.9 -0 1.8 -0.01 2.73 -0.01 C5.7 -0.02 8.66 -0.01 11.63 -0.01 C13.7 -0.01 15.78 -0.01 17.85 -0.01 C22.19 -0.02 26.53 -0.01 30.88 -0 C36.42 0.01 41.96 0 47.51 -0.01 C51.79 -0.02 56.07 -0.01 60.35 -0.01 C62.4 -0.01 64.44 -0.01 66.48 -0.01 C69.35 -0.02 72.22 -0.01 75.08 0 C76.33 -0.01 76.33 -0.01 77.6 -0.01 C84.47 0.04 91.63 0.47 97.67 3.95 C106.73 14.1 103.94 31.67 104.01 44.38 C104.01 45.34 104.02 46.29 104.02 47.28 C104.05 52.34 104.07 57.4 104.09 62.45 C104.1 66.61 104.13 70.77 104.17 74.93 C104.22 79.99 104.24 85.05 104.25 90.1 C104.26 92.02 104.27 93.93 104.29 95.84 C104.46 110.07 103.28 121.75 92.91 132.55 C89.39 135.32 86.1 135.87 81.74 136.26 C80.54 136.42 79.34 136.59 78.1 136.76 C73.86 137.29 69.69 137.42 65.43 137.44 C64.24 137.45 64.24 137.45 63.04 137.46 C60.46 137.48 57.88 137.49 55.3 137.5 C54.41 137.5 53.52 137.51 52.61 137.51 C47.92 137.53 43.23 137.54 38.54 137.55 C33.71 137.57 28.88 137.6 24.05 137.64 C20.32 137.67 16.59 137.67 12.86 137.68 C11.08 137.68 9.3 137.69 7.52 137.71 C5.03 137.74 2.54 137.74 0.04 137.73 C-1.04 137.75 -1.04 137.75 -2.15 137.77 C-7.54 137.71 -11.79 136.29 -16.26 133.26 C-18.26 131.14 -19.83 128.9 -21.39 126.45 C-22.18 125.25 -22.97 124.06 -23.77 122.86 C-24.33 122.02 -24.33 122.02 -24.9 121.15 C-26.26 119.26 -27.75 117.72 -29.37 116.06 C-32.82 112.06 -33.11 108.95 -33.01 103.8 C-33.02 102.58 -33.02 102.58 -33.03 101.33 C-33.05 98.65 -33.02 95.98 -32.99 93.3 C-32.99 91.42 -32.99 89.55 -32.99 87.68 C-32.99 83.75 -32.97 79.83 -32.94 75.91 C-32.89 70.9 -32.89 65.89 -32.9 60.88 C-32.91 57.01 -32.9 53.14 -32.88 49.28 C-32.87 47.43 -32.87 45.58 -32.87 43.74 C-32.88 25.51 -32.88 25.51 -28.26 18.26 C-27.92 17.63 -27.58 17.01 -27.22 16.37 C-26.28 14.64 -25.27 12.95 -24.26 11.26 C-23.79 10.37 -23.32 9.49 -22.83 8.57 C-17.3 0.39 -9.02 -0.04 0 0 Z " fill="#000000" transform="translate(470.264892578125,804.7412109375)"/>
<path d="M0 0 C0.9 -0 1.8 -0.01 2.73 -0.01 C5.71 -0.02 8.7 -0.02 11.68 -0.02 C13.76 -0.03 15.83 -0.03 17.91 -0.03 C22.27 -0.04 26.63 -0.04 30.99 -0.04 C36.56 -0.04 42.13 -0.05 47.69 -0.07 C51.99 -0.08 56.28 -0.08 60.58 -0.08 C62.63 -0.08 64.68 -0.09 66.73 -0.1 C69.61 -0.11 72.49 -0.1 75.38 -0.1 C76.63 -0.11 76.63 -0.11 77.91 -0.11 C84.8 -0.08 91.95 0.35 98.01 3.83 C107.16 14.09 104.27 32.08 104.31 44.96 C104.32 45.9 104.32 46.83 104.33 47.8 C104.35 52.74 104.36 57.68 104.37 62.62 C104.38 67.69 104.42 72.76 104.46 77.83 C104.48 81.77 104.49 85.7 104.49 89.63 C104.5 91.5 104.51 93.37 104.53 95.24 C104.64 107.18 104.65 118.46 96.58 128.15 C96.01 128.85 95.44 129.55 94.86 130.27 C88.2 137.28 78.79 137.01 69.62 137.34 C64.73 137.46 59.84 137.48 54.95 137.48 C53.16 137.49 51.36 137.49 49.56 137.5 C45.82 137.51 42.09 137.52 38.35 137.52 C33.58 137.52 28.8 137.54 24.03 137.58 C20.33 137.6 16.63 137.6 12.93 137.6 C11.17 137.6 9.41 137.61 7.65 137.63 C5.19 137.65 2.73 137.64 0.27 137.63 C-0.44 137.64 -1.16 137.65 -1.89 137.67 C-7.24 137.6 -11.48 136.16 -15.92 133.15 C-17.94 130.98 -19.53 128.7 -21.11 126.21 C-24.07 121.7 -27.02 117.92 -30.92 114.15 C-32.49 111.02 -32.09 107.69 -32.1 104.26 C-32.11 103.44 -32.11 102.63 -32.12 101.79 C-32.14 99.08 -32.15 96.38 -32.16 93.67 C-32.17 92.29 -32.17 92.29 -32.17 90.87 C-32.2 85.97 -32.21 81.07 -32.22 76.17 C-32.23 71.12 -32.26 66.08 -32.3 61.03 C-32.33 57.14 -32.34 53.25 -32.34 49.36 C-32.35 47.5 -32.36 45.64 -32.38 43.78 C-32.55 25.32 -32.55 25.32 -27.92 18.15 C-27.24 16.92 -26.55 15.69 -25.86 14.46 C-25.22 13.36 -24.58 12.27 -23.92 11.15 C-23.51 10.09 -23.1 9.04 -22.67 7.96 C-19.97 3.61 -15.87 1.99 -11.05 0.61 C-7.41 -0.18 -3.7 -0 0 0 Z " fill="#000000" transform="translate(226.92431640625,804.854736328125)"/>
<path d="M0 0 C0.9 -0 1.8 -0.01 2.73 -0.01 C5.7 -0.02 8.66 -0.01 11.63 -0.01 C13.7 -0.01 15.78 -0.01 17.85 -0.01 C22.19 -0.02 26.53 -0.01 30.88 -0 C36.42 0.01 41.96 0 47.51 -0.01 C51.79 -0.02 56.07 -0.01 60.35 -0.01 C62.4 -0.01 64.44 -0.01 66.48 -0.01 C69.35 -0.02 72.22 -0.01 75.08 0 C76.33 -0.01 76.33 -0.01 77.6 -0.01 C84.53 0.04 92.52 0.18 98.24 4.51 C104.81 11.74 103.88 23.19 103.91 32.5 C103.92 33.36 103.93 34.22 103.93 35.11 C103.95 37.93 103.96 40.75 103.97 43.57 C103.98 44.54 103.98 45.51 103.99 46.51 C104.01 51.65 104.02 56.78 104.03 61.92 C104.04 67.19 104.08 72.47 104.12 77.75 C104.14 81.84 104.15 85.92 104.15 90 C104.16 91.95 104.17 93.89 104.19 95.84 C104.3 107.97 104.31 118.35 96.24 128.2 C95.67 128.91 95.1 129.62 94.52 130.35 C88.33 136.98 80.12 136.94 71.52 137.37 C65.86 137.56 60.2 137.56 54.54 137.56 C52.74 137.56 50.94 137.57 49.14 137.57 C45.39 137.58 41.64 137.58 37.9 137.57 C33.11 137.57 28.32 137.59 23.53 137.61 C19.82 137.62 16.11 137.62 12.4 137.62 C10.63 137.62 8.86 137.63 7.1 137.64 C4.63 137.65 2.17 137.64 -0.29 137.63 C-1.02 137.64 -1.74 137.65 -2.48 137.65 C-7.82 137.6 -11.93 136.39 -15.92 132.75 C-16.34 132.22 -16.77 131.68 -17.2 131.13 C-17.69 130.52 -18.19 129.91 -18.69 129.29 C-19.21 128.62 -19.73 127.95 -20.26 127.26 C-20.84 126.52 -21.43 125.78 -22.02 125.01 C-23.17 123.54 -24.32 122.05 -25.46 120.57 C-27.3 118.13 -27.3 118.13 -29.84 115.63 C-32.83 112.03 -32.98 108.51 -32.93 103.97 C-32.94 103.15 -32.95 102.34 -32.96 101.51 C-32.99 98.84 -32.98 96.17 -32.96 93.5 C-32.97 91.63 -32.98 89.76 -32.99 87.9 C-33 83.98 -32.99 80.07 -32.97 76.15 C-32.95 71.16 -32.98 66.17 -33.02 61.18 C-33.04 57.32 -33.04 53.46 -33.03 49.6 C-33.03 47.76 -33.03 45.92 -33.05 44.09 C-33.14 32.96 -32.38 24.92 -26.26 15.26 C-25.4 13.6 -24.54 11.93 -23.7 10.26 C-21.02 5.55 -18.37 3 -13.18 1.18 C-8.79 -0.02 -4.53 -0.02 0 0 Z " fill="#000000" transform="translate(956.264892578125,804.7412109375)"/>
<path d="M0 0 C0.9 -0 1.8 -0.01 2.73 -0.01 C5.7 -0.02 8.66 -0.01 11.63 -0.01 C13.7 -0.01 15.78 -0.01 17.85 -0.01 C22.19 -0.02 26.53 -0.01 30.88 -0 C36.42 0.01 41.96 0 47.51 -0.01 C51.79 -0.02 56.07 -0.01 60.35 -0.01 C62.4 -0.01 64.44 -0.01 66.48 -0.01 C69.35 -0.02 72.22 -0.01 75.08 0 C76.33 -0.01 76.33 -0.01 77.6 -0.01 C84.47 0.04 91.63 0.47 97.67 3.95 C106.75 14.12 103.93 31.72 103.97 44.45 C103.98 45.41 103.98 46.37 103.99 47.36 C104.01 52.43 104.02 57.5 104.03 62.56 C104.04 67.77 104.08 72.98 104.12 78.19 C104.14 82.23 104.15 86.26 104.15 90.29 C104.16 92.21 104.17 94.13 104.19 96.06 C104.3 108.11 104.26 118.41 96.24 128.2 C95.67 128.91 95.1 129.62 94.52 130.35 C88.33 136.98 80.12 136.94 71.52 137.37 C65.86 137.56 60.2 137.56 54.54 137.56 C52.74 137.56 50.94 137.57 49.14 137.57 C45.39 137.58 41.64 137.58 37.9 137.57 C33.11 137.57 28.32 137.59 23.53 137.61 C19.82 137.62 16.11 137.62 12.4 137.62 C10.63 137.62 8.86 137.63 7.1 137.64 C4.63 137.65 2.17 137.64 -0.29 137.63 C-1.02 137.64 -1.74 137.65 -2.48 137.65 C-7.82 137.6 -11.93 136.39 -15.92 132.75 C-16.34 132.22 -16.77 131.68 -17.2 131.13 C-17.69 130.52 -18.19 129.91 -18.69 129.29 C-19.21 128.62 -19.73 127.95 -20.26 127.26 C-20.84 126.52 -21.43 125.78 -22.02 125.01 C-23.17 123.54 -24.32 122.05 -25.46 120.57 C-27.3 118.13 -27.3 118.13 -29.84 115.64 C-32.84 112.02 -32.97 108.48 -32.9 103.92 C-32.9 103.1 -32.91 102.29 -32.92 101.45 C-32.93 98.76 -32.92 96.08 -32.89 93.4 C-32.89 91.52 -32.9 89.64 -32.9 87.77 C-32.9 83.84 -32.89 79.91 -32.86 75.98 C-32.83 70.97 -32.83 65.95 -32.85 60.93 C-32.86 57.06 -32.85 53.19 -32.84 49.31 C-32.83 47.47 -32.83 45.62 -32.84 43.77 C-32.88 25.5 -32.88 25.5 -28.26 18.26 C-27.58 17.01 -26.89 15.76 -26.2 14.51 C-25.24 12.9 -25.24 12.9 -24.26 11.26 C-23.79 10.37 -23.32 9.49 -22.83 8.57 C-17.3 0.39 -9.02 -0.04 0 0 Z " fill="#000000" transform="translate(713.264892578125,804.7412109375)"/>
<path d="M0 0 C0.85 -0.01 1.69 -0.01 2.56 -0.02 C3.48 -0.02 4.4 -0.02 5.35 -0.02 C6.32 -0.03 7.3 -0.03 8.3 -0.04 C11.52 -0.05 14.75 -0.06 17.97 -0.06 C20.21 -0.07 22.45 -0.07 24.7 -0.08 C29.4 -0.09 34.1 -0.1 38.8 -0.1 C44.82 -0.11 50.84 -0.13 56.86 -0.16 C61.49 -0.18 66.12 -0.18 70.75 -0.18 C72.97 -0.19 75.19 -0.19 77.41 -0.21 C80.52 -0.22 83.62 -0.22 86.73 -0.22 C87.64 -0.23 88.55 -0.23 89.5 -0.24 C96.03 -0.2 100.84 0.79 106.04 5.02 C113.67 14.62 110.93 31.7 110.97 43.3 C110.97 44.25 110.98 45.21 110.98 46.2 C111 51.26 111.02 56.33 111.03 61.39 C111.04 66.59 111.07 71.79 111.11 76.99 C111.14 81.02 111.15 85.05 111.15 89.08 C111.16 91 111.17 92.91 111.19 94.83 C111.31 108.37 110.66 119.5 101.59 130.33 C95.06 136.7 85.44 136.29 76.86 136.32 C75.57 136.33 75.57 136.33 74.26 136.34 C71.44 136.36 68.61 136.37 65.79 136.38 C64.82 136.38 63.85 136.39 62.86 136.39 C57.74 136.41 52.62 136.43 47.51 136.44 C42.23 136.45 36.95 136.48 31.67 136.52 C27.61 136.55 23.54 136.56 19.47 136.56 C17.53 136.56 15.58 136.58 13.63 136.59 C10.91 136.62 8.19 136.62 5.47 136.61 C4.27 136.63 4.27 136.63 3.05 136.65 C-2.18 136.6 -5.1 135.57 -9.27 132.14 C-11.6 129.41 -11.6 129.41 -13.64 126.52 C-14.68 125.07 -14.68 125.07 -15.73 123.6 C-17.27 121.14 -17.27 121.14 -17.27 119.14 C-17.85 118.91 -18.42 118.69 -19.02 118.45 C-22.01 116.71 -23.38 115.07 -25.27 112.14 C-25.66 109.24 -25.83 106.73 -25.8 103.84 C-25.81 103.01 -25.82 102.19 -25.83 101.34 C-25.85 98.62 -25.84 95.91 -25.83 93.19 C-25.84 91.29 -25.85 89.4 -25.85 87.5 C-25.86 83.52 -25.86 79.55 -25.84 75.57 C-25.83 70.49 -25.85 65.42 -25.89 60.34 C-25.91 56.42 -25.91 52.5 -25.9 48.58 C-25.9 46.71 -25.9 44.84 -25.92 42.97 C-26.04 24.68 -26.04 24.68 -20.27 16.14 C-19.74 15.07 -19.22 14 -18.68 12.9 C-15.89 7.45 -13.87 3.82 -8.27 1.14 C-5.45 0.29 -2.93 0.01 0 0 Z " fill="#000000" transform="translate(706.2682647705078,610.8595581054688)"/>
<path d="M0 0 C0.86 -0.01 1.72 -0.01 2.6 -0.02 C3.54 -0.02 4.48 -0.03 5.45 -0.03 C6.44 -0.04 7.44 -0.04 8.46 -0.05 C11.75 -0.07 15.04 -0.08 18.33 -0.09 C19.45 -0.1 20.57 -0.1 21.73 -0.1 C27.68 -0.12 33.63 -0.14 39.58 -0.15 C45.72 -0.16 51.85 -0.19 57.99 -0.23 C62.72 -0.26 67.44 -0.27 72.17 -0.27 C74.43 -0.28 76.69 -0.29 78.95 -0.31 C82.12 -0.33 85.3 -0.33 88.47 -0.32 C89.4 -0.34 90.33 -0.35 91.28 -0.36 C97.16 -0.31 101.98 0.58 106.78 4.15 C114.64 14.29 111.98 31.18 112.02 43.3 C112.03 44.26 112.03 45.22 112.03 46.21 C112.05 51.27 112.07 56.33 112.08 61.4 C112.09 66.6 112.12 71.8 112.16 77 C112.19 81.03 112.2 85.06 112.2 89.09 C112.21 91 112.22 92.92 112.24 94.84 C112.35 106.96 112.43 118.38 104.22 128.21 C103.35 129.28 103.35 129.28 102.47 130.37 C97.02 136.12 88.86 136.07 81.36 136.36 C76.12 136.5 70.88 136.53 65.64 136.55 C64.69 136.56 63.74 136.56 62.76 136.57 C57.75 136.6 52.73 136.62 47.72 136.63 C42.56 136.64 37.4 136.69 32.24 136.74 C28.25 136.78 24.26 136.79 20.27 136.79 C18.36 136.8 16.46 136.82 14.56 136.84 C-3.36 137.07 -3.36 137.07 -8.95 131.68 C-9.58 130.92 -9.58 130.92 -10.22 130.15 C-10.91 129.33 -11.6 128.51 -12.31 127.66 C-12.78 126.92 -13.24 126.17 -13.72 125.4 C-14.44 124.26 -14.44 124.26 -15.19 123.1 C-16.22 121.15 -16.22 121.15 -16.22 119.15 C-16.79 118.94 -17.37 118.73 -17.97 118.52 C-21.18 116.56 -22.4 114.44 -24.22 111.15 C-24.61 108.25 -24.79 105.74 -24.77 102.85 C-24.78 102.04 -24.79 101.23 -24.8 100.4 C-24.83 97.73 -24.82 95.06 -24.82 92.39 C-24.83 90.52 -24.84 88.65 -24.84 86.78 C-24.86 82.87 -24.86 78.95 -24.85 75.04 C-24.84 70.05 -24.87 65.06 -24.92 60.07 C-24.95 56.21 -24.95 52.35 -24.94 48.49 C-24.94 46.65 -24.95 44.81 -24.97 42.97 C-25.08 31.83 -24.33 23.83 -18.22 14.15 C-17.37 12.49 -16.53 10.82 -15.72 9.15 C-12.25 2.98 -7.13 0.04 0 0 Z " fill="#000000" transform="translate(705.2172088623047,999.8528289794922)"/>
<path d="M0 0 C0.86 -0.01 1.72 -0.01 2.6 -0.02 C3.54 -0.02 4.48 -0.03 5.45 -0.03 C6.44 -0.04 7.44 -0.04 8.46 -0.05 C11.75 -0.07 15.04 -0.08 18.33 -0.09 C19.45 -0.1 20.57 -0.1 21.73 -0.1 C27.68 -0.12 33.63 -0.14 39.58 -0.15 C45.72 -0.16 51.85 -0.19 57.99 -0.23 C62.72 -0.26 67.44 -0.27 72.17 -0.27 C74.43 -0.28 76.69 -0.29 78.95 -0.31 C82.12 -0.33 85.3 -0.33 88.47 -0.32 C89.4 -0.34 90.33 -0.35 91.28 -0.36 C97.16 -0.31 101.97 0.59 106.78 4.15 C114.79 14.31 111.98 31.93 112.02 44.18 C112.03 45.13 112.03 46.07 112.03 47.05 C112.05 52.05 112.07 57.05 112.08 62.05 C112.09 67.18 112.12 72.31 112.16 77.44 C112.19 81.42 112.2 85.4 112.2 89.38 C112.21 91.27 112.22 93.16 112.24 95.05 C112.35 107.11 112.38 118.44 104.22 128.21 C103.35 129.28 103.35 129.28 102.47 130.37 C97.02 136.12 88.85 136.08 81.35 136.35 C76.09 136.47 70.83 136.48 65.57 136.48 C63.63 136.49 61.69 136.5 59.75 136.5 C55.7 136.52 51.66 136.52 47.61 136.52 C42.43 136.52 37.25 136.55 32.08 136.58 C28.08 136.6 24.08 136.61 20.08 136.6 C18.17 136.61 16.26 136.62 14.35 136.63 C11.68 136.65 9.02 136.65 6.35 136.63 C5.57 136.64 4.79 136.66 3.98 136.67 C-1.2 136.61 -4.09 135.53 -8.22 132.15 C-10.55 129.42 -10.55 129.42 -12.59 126.52 C-13.62 125.08 -13.62 125.08 -14.68 123.61 C-16.22 121.15 -16.22 121.15 -16.22 119.15 C-16.79 118.94 -17.37 118.73 -17.97 118.52 C-21.18 116.56 -22.4 114.44 -24.22 111.15 C-24.61 108.25 -24.79 105.74 -24.77 102.85 C-24.78 102.04 -24.79 101.23 -24.8 100.4 C-24.83 97.73 -24.82 95.06 -24.82 92.39 C-24.83 90.52 -24.84 88.65 -24.84 86.78 C-24.86 82.87 -24.86 78.95 -24.85 75.04 C-24.84 70.05 -24.87 65.06 -24.92 60.07 C-24.95 56.21 -24.95 52.35 -24.94 48.49 C-24.94 46.65 -24.95 44.81 -24.97 42.97 C-25.08 31.83 -24.33 23.83 -18.22 14.15 C-17.37 12.49 -16.53 10.82 -15.72 9.15 C-12.25 2.98 -7.13 0.04 0 0 Z " fill="#000000" transform="translate(462.2172088623047,999.8528289794922)"/>
<path d="M0 0 C0.85 -0.01 1.69 -0.01 2.56 -0.02 C3.48 -0.02 4.4 -0.02 5.35 -0.02 C6.32 -0.03 7.3 -0.03 8.3 -0.04 C11.52 -0.05 14.75 -0.06 17.97 -0.06 C20.21 -0.07 22.45 -0.07 24.7 -0.08 C29.4 -0.09 34.1 -0.1 38.8 -0.1 C44.82 -0.11 50.84 -0.13 56.86 -0.16 C61.49 -0.18 66.12 -0.18 70.75 -0.18 C72.97 -0.19 75.19 -0.19 77.41 -0.21 C80.52 -0.22 83.62 -0.22 86.73 -0.22 C87.64 -0.23 88.55 -0.23 89.5 -0.24 C96.03 -0.2 100.84 0.79 106.04 5.02 C113.67 14.62 110.93 31.7 110.97 43.3 C110.97 44.25 110.98 45.21 110.98 46.2 C111 51.26 111.02 56.33 111.03 61.39 C111.04 66.59 111.07 71.79 111.11 76.99 C111.14 81.02 111.15 85.05 111.15 89.08 C111.16 91 111.17 92.91 111.19 94.83 C111.31 108.37 110.66 119.5 101.59 130.33 C95.06 136.7 85.44 136.29 76.86 136.32 C75.57 136.33 75.57 136.33 74.26 136.34 C71.44 136.36 68.61 136.37 65.79 136.38 C64.82 136.38 63.85 136.39 62.86 136.39 C57.74 136.41 52.62 136.43 47.51 136.44 C42.23 136.45 36.95 136.48 31.67 136.52 C27.61 136.55 23.54 136.56 19.47 136.56 C17.53 136.56 15.58 136.58 13.63 136.59 C10.91 136.62 8.19 136.62 5.47 136.61 C4.27 136.63 4.27 136.63 3.05 136.65 C-2.18 136.6 -5.1 135.57 -9.27 132.14 C-11.6 129.41 -11.6 129.41 -13.64 126.52 C-14.68 125.07 -14.68 125.07 -15.73 123.6 C-17.27 121.14 -17.27 121.14 -17.27 119.14 C-17.85 118.93 -18.42 118.73 -19.02 118.52 C-22.23 116.55 -23.45 114.43 -25.27 111.14 C-25.65 108.26 -25.82 105.78 -25.79 102.91 C-25.79 102.1 -25.8 101.3 -25.81 100.47 C-25.82 97.82 -25.81 95.18 -25.8 92.53 C-25.8 90.68 -25.81 88.83 -25.81 86.98 C-25.82 83.1 -25.81 79.23 -25.79 75.35 C-25.77 70.4 -25.78 65.45 -25.8 60.51 C-25.82 56.68 -25.81 52.86 -25.8 49.04 C-25.8 47.22 -25.8 45.39 -25.81 43.57 C-25.86 31.93 -25.57 22.73 -18.27 13.14 C-17.64 11.82 -17.03 10.49 -16.46 9.14 C-14.5 5.11 -12.29 3.24 -8.27 1.14 C-5.46 0.28 -2.93 0.01 0 0 Z " fill="#000000" transform="translate(949.2682647705078,610.8595581054688)"/>
<path d="M0 0 C0.85 -0.01 1.69 -0.01 2.56 -0.02 C3.48 -0.02 4.4 -0.02 5.35 -0.02 C6.32 -0.03 7.3 -0.03 8.3 -0.04 C11.52 -0.05 14.75 -0.06 17.97 -0.06 C20.21 -0.07 22.45 -0.07 24.7 -0.08 C29.4 -0.09 34.1 -0.1 38.8 -0.1 C44.82 -0.11 50.84 -0.13 56.86 -0.16 C61.49 -0.18 66.12 -0.18 70.75 -0.18 C72.97 -0.19 75.19 -0.19 77.41 -0.21 C80.52 -0.22 83.62 -0.22 86.73 -0.22 C87.64 -0.23 88.55 -0.23 89.5 -0.24 C96.02 -0.2 100.78 0.83 106.04 4.95 C113.58 14.72 110.93 32.33 110.97 44.08 C110.97 45.02 110.98 45.97 110.98 46.95 C111 51.95 111.02 56.96 111.03 61.96 C111.04 67.1 111.07 72.24 111.11 77.39 C111.14 81.37 111.15 85.35 111.15 89.33 C111.16 91.23 111.17 93.12 111.19 95.02 C111.3 107.44 111.14 118.6 102.86 128.7 C101.9 129.91 101.9 129.91 100.93 131.14 C94.66 136.84 84.9 136.29 76.86 136.32 C75.57 136.33 75.57 136.33 74.26 136.34 C71.44 136.36 68.61 136.37 65.79 136.38 C64.82 136.38 63.85 136.39 62.86 136.39 C57.74 136.41 52.62 136.43 47.51 136.44 C42.23 136.45 36.95 136.48 31.67 136.52 C27.61 136.55 23.54 136.56 19.47 136.56 C17.53 136.56 15.58 136.58 13.63 136.59 C10.91 136.62 8.19 136.62 5.47 136.61 C4.27 136.63 4.27 136.63 3.05 136.65 C-2.18 136.6 -5.1 135.57 -9.27 132.14 C-11.6 129.41 -11.6 129.41 -13.64 126.52 C-14.68 125.07 -14.68 125.07 -15.73 123.6 C-17.27 121.14 -17.27 121.14 -17.27 119.14 C-17.85 118.91 -18.42 118.69 -19.02 118.45 C-22.01 116.71 -23.38 115.07 -25.27 112.14 C-25.66 109.24 -25.83 106.73 -25.8 103.84 C-25.81 103.01 -25.82 102.19 -25.83 101.34 C-25.85 98.62 -25.84 95.91 -25.83 93.19 C-25.84 91.29 -25.85 89.4 -25.85 87.5 C-25.86 83.52 -25.86 79.55 -25.84 75.57 C-25.83 70.49 -25.85 65.42 -25.89 60.34 C-25.91 56.42 -25.91 52.5 -25.9 48.58 C-25.9 46.71 -25.9 44.84 -25.92 42.97 C-26.04 24.68 -26.04 24.68 -20.27 16.14 C-19.74 15.07 -19.22 14 -18.68 12.9 C-15.89 7.45 -13.87 3.82 -8.27 1.14 C-5.45 0.29 -2.93 0.01 0 0 Z " fill="#000000" transform="translate(463.2682647705078,610.8595581054688)"/>
<path d="M0 0 C0.86 -0.01 1.72 -0.01 2.6 -0.02 C3.54 -0.02 4.48 -0.03 5.45 -0.03 C6.44 -0.04 7.44 -0.04 8.46 -0.05 C11.75 -0.07 15.04 -0.08 18.33 -0.09 C19.45 -0.1 20.57 -0.1 21.73 -0.1 C27.68 -0.12 33.63 -0.14 39.58 -0.15 C45.72 -0.16 51.85 -0.19 57.99 -0.23 C62.72 -0.26 67.44 -0.27 72.17 -0.27 C74.43 -0.28 76.69 -0.29 78.95 -0.31 C82.12 -0.33 85.3 -0.33 88.47 -0.32 C89.4 -0.34 90.33 -0.35 91.28 -0.36 C97.23 -0.31 101.91 0.58 106.78 4.15 C114.59 13.64 112.11 32.85 112.12 44.48 C112.13 46.4 112.13 48.33 112.14 50.25 C112.15 54.26 112.15 58.27 112.15 62.27 C112.15 67.38 112.18 72.49 112.21 77.6 C112.24 81.56 112.24 85.53 112.24 89.5 C112.24 91.38 112.25 93.26 112.27 95.15 C112.36 107.16 112.35 118.47 104.22 128.21 C103.35 129.28 103.35 129.28 102.47 130.37 C97.02 136.12 88.85 136.08 81.35 136.35 C76.09 136.47 70.83 136.48 65.57 136.48 C63.63 136.49 61.69 136.5 59.75 136.5 C55.7 136.52 51.66 136.52 47.61 136.52 C42.43 136.52 37.25 136.55 32.08 136.58 C28.08 136.6 24.08 136.61 20.08 136.6 C18.17 136.61 16.26 136.62 14.35 136.63 C11.68 136.65 9.02 136.65 6.35 136.63 C5.57 136.64 4.79 136.66 3.98 136.67 C-1.2 136.61 -4.09 135.53 -8.22 132.15 C-10.55 129.42 -10.55 129.42 -12.59 126.52 C-13.62 125.08 -13.62 125.08 -14.68 123.61 C-16.22 121.15 -16.22 121.15 -16.22 119.15 C-16.79 118.92 -17.37 118.69 -17.97 118.46 C-20.96 116.71 -22.33 115.07 -24.22 112.15 C-24.61 109.26 -24.79 106.76 -24.77 103.88 C-24.78 103.06 -24.79 102.23 -24.8 101.39 C-24.83 98.68 -24.82 95.98 -24.82 93.27 C-24.83 91.38 -24.84 89.48 -24.84 87.59 C-24.86 83.62 -24.86 79.65 -24.85 75.69 C-24.84 70.63 -24.87 65.57 -24.92 60.51 C-24.95 56.6 -24.95 52.69 -24.94 48.78 C-24.94 46.92 -24.95 45.05 -24.97 43.19 C-25.08 31.98 -24.38 23.88 -18.22 14.15 C-17.37 12.49 -16.53 10.82 -15.72 9.15 C-12.25 2.98 -7.13 0.04 0 0 Z " fill="#000000" transform="translate(219.2172088623047,999.8528289794922)"/>
</svg>
